HIERARCHY
ROOT hip
{
	OFFSET 0.000000 0.000000 0.000000 
	CHANNELS 6 Xposition Yposition Zposition Xrotation Zrotation Yrotation
	JOINT abdomen
	{
		OFFSET 0.000000 3.402643 0.000000 
		CHANNELS 3 Xrotation Zrotation Yrotation
		JOINT chest
		{
			OFFSET 0.000000 8.438565 -0.680529 
			CHANNELS 3 Xrotation Zrotation Yrotation
			JOINT neck
			{
				OFFSET 0.000000 10.207942 -0.272212 
				CHANNELS 3 Xrotation Zrotation Yrotation
				JOINT head
				{
					OFFSET 0.000000 3.130431 0.000000 
					CHANNELS 3 Xrotation Zrotation Yrotation
					End Site
					{
						OFFSET 0.000000 3.130435 0.000000 
					}
				}
			}
			JOINT lCollar
			{
				OFFSET 3.470700 6.669187 -0.816635 
				CHANNELS 3 Yrotation Zrotation Xrotation
				JOINT lShldr
				{
					OFFSET 3.198488 0.000000 0.000000 
					CHANNELS 3 Zrotation Yrotation Xrotation
					JOINT lForeArm
					{
						OFFSET 10.139888 0.000000 0.000000 
						CHANNELS 3 Yrotation Zrotation Xrotation
						JOINT lHand
						{
							OFFSET 8.370511 0.000000 0.000000 
							CHANNELS 3 Zrotation Yrotation Xrotation
							End Site
							{
								OFFSET 4.083176 0.000000 0.000000 
							}
						}
					}
				}
			}
			JOINT rCollar
			{
				OFFSET -3.470700 6.669187 -0.816635 
				CHANNELS 3 Yrotation Zrotation Xrotation
				JOINT rShldr
				{
					OFFSET -3.198488 0.000000 0.000000 
					CHANNELS 3 Zrotation Yrotation Xrotation
					JOINT rForeArm
					{
						OFFSET -10.139888 0.000000 0.000000 
						CHANNELS 3 Yrotation Zrotation Xrotation
						JOINT rHand
						{
							OFFSET -8.370511 0.000000 0.000000 
							CHANNELS 3 Zrotation Yrotation Xrotation
							End Site
							{
								OFFSET -4.083176 0.000000 0.000000 
							}
						}
					}
				}
			}
		}
	}
	JOINT lThigh
	{
		OFFSET 5.308129 -1.633274 1.361059 
		CHANNELS 3 Xrotation Zrotation Yrotation
		JOINT lShin
		{
			OFFSET -2.041588 -20.007561 0.000000 
			CHANNELS 3 Xrotation Zrotation Yrotation
			JOINT lFoot
			{
				OFFSET 0.000000 -19.190928 -1.224953 
				CHANNELS 3 Xrotation Yrotation Zrotation
				End Site
				{
					OFFSET 0.000000 -2.449906 4.627600 
				}
			}
		}
	}
	JOINT rThigh
	{
		OFFSET -5.308129 -1.633274 1.361059 
		CHANNELS 3 Xrotation Zrotation Yrotation
		JOINT rShin
		{
			OFFSET 2.041588 -20.007561 0.000000 
			CHANNELS 3 Xrotation Zrotation Yrotation
			JOINT rFoot
			{
				OFFSET 0.000000 -19.190928 -1.224953 
				CHANNELS 3 Xrotation Yrotation Zrotation
				End Site
				{
					OFFSET 0.000000 -2.449906 4.627600 
				}
			}
		}
	}
}
MOTION
Frames: 18
Frame Time: 0.011111
-41.997360 53.306828 -7.997172 -0.662305 -7.468602 85.256348 15.624464 -5.469450 6.041790 -17.774071 1.036175 2.084759 -7.637603 -12.827046 -11.084402 21.052406 9.092609 -22.889240 -13.725516 -13.189672 -3.762996 -59.013885 -24.339117 -2.630319 -50.664799 7.850991 8.419777 8.524705 12.647240 -40.989632 8.354301 9.292459 -1.514610 70.510948 18.597769 11.677678 55.231419 -8.716012 10.326280 -8.534408 -12.637552 17.337748 -4.198334 6.980215 6.762609 9.418632 -5.996161 -2.028897 -19.821148 4.013507 -1.377108 -9.400558 -10.522697 -3.297559 23.300240 5.644380 3.952980 -26.662374 -5.162026 -0.283612 
-42.016514 53.270439 -8.103141 -0.574911 -7.396626 85.262764 15.830020 -5.206719 5.882705 -17.930050 0.507508 2.008816 -6.420372 -11.712961 -11.369334 17.357218 8.300530 -23.442314 -13.725516 -13.189672 -3.762996 -58.407215 -24.221996 -1.137778 -50.820755 7.880628 8.481791 8.524705 12.647240 -40.530651 8.354301 9.292459 -1.514610 70.913696 18.679548 10.702189 54.966610 -8.673123 10.217346 -8.534408 -12.637552 17.308453 -3.934586 6.784952 7.412577 9.186737 -5.995407 -2.017370 -19.526920 3.464685 -1.576826 -10.038029 -10.936162 -4.206668 24.524101 5.594288 4.102485 -26.521183 -4.706366 -0.059287 
-42.043324 53.239159 -8.208792 -0.531398 -7.316273 85.360176 16.102089 -4.904570 5.744306 -18.095507 -0.070015 1.933696 -5.272886 -10.636672 -11.626966 13.743042 7.644906 -23.944397 -13.725516 -13.189672 -3.762996 -57.778980 -24.292004 0.063185 -50.946732 7.909669 8.530223 8.524705 12.647240 -40.013069 8.354301 9.292459 -1.514610 71.311546 18.790415 9.531803 54.650215 -8.624587 10.086288 -8.534408 -12.637552 16.956890 -3.728529 6.606367 7.679591 8.930141 -5.995738 -1.955514 -19.277689 3.143443 -1.727364 -10.699054 -11.235201 -4.866719 25.836475 5.526757 4.274113 -26.597183 -4.581038 -0.012680 
-42.081306 53.219372 -8.302631 -0.550941 -7.267508 85.511925 16.371998 -4.458584 5.565821 -18.133600 -0.807385 1.834360 -3.017645 -8.852464 -12.009478 6.878297 5.886260 -24.698704 -13.725516 -13.189672 -3.762996 -57.017784 -24.514202 1.016729 -51.082375 7.936363 8.581841 8.524705 12.647240 -39.583382 8.354301 9.292459 -1.514610 71.828896 19.107977 8.292562 54.270081 -8.561043 9.924359 -8.534408 -12.637552 16.312359 -3.669383 6.517627 7.774051 8.860987 -5.993238 -1.958936 -19.137569 2.865697 -1.837820 -11.364628 -11.403233 -5.292738 27.101131 5.477194 4.445112 -26.681707 -4.820046 -0.155978 
-42.129185 53.218090 -8.381150 -0.540497 -7.237082 85.666550 16.591688 -4.066981 5.310695 -18.112957 -1.408834 1.710962 -3.198142 -8.601274 -12.047564 6.598668 6.229161 -24.782879 -13.725516 -13.189672 -3.762996 -56.310886 -24.819901 1.924712 -51.145721 7.954264 8.621074 8.524705 12.647240 -39.280655 8.354301 9.292459 -1.514610 72.184097 19.519394 7.171571 53.774464 -8.476508 9.719669 -8.534408 -12.637552 15.677594 -3.748368 6.431804 8.017552 9.010961 -5.997359 -1.972380 -19.094866 2.545347 -1.936684 -12.084158 -11.556010 -5.547583 28.346989 5.399996 4.616203 -26.660938 -5.241143 -0.302880 
-42.219513 53.257351 -8.442434 -0.755973 -7.487917 85.876793 16.580706 -3.485247 5.000249 -18.083641 -1.325834 1.576984 -3.421604 -8.804709 -12.014800 6.340707 6.488250 -24.781355 -13.725516 -13.189672 -3.762996 -56.213139 -25.321003 2.535859 -51.144657 7.948139 8.613544 8.524705 12.647240 -39.153702 8.354301 9.292459 -1.514610 71.899086 19.762159 6.340228 53.405319 -8.408570 9.560943 -8.534408 -12.637552 15.267438 -4.363704 6.686079 8.218324 9.458681 -6.006468 -2.023337 -19.057871 2.374481 -2.003813 -13.143143 -11.356010 -5.513874 29.627981 5.331852 4.782025 -26.812963 -5.697982 -0.552530 
-42.373363 53.320549 -8.486801 -1.035631 -8.051381 86.223923 16.394693 -2.803549 4.632665 -18.288542 -1.303946 1.416214 -3.519925 -8.889132 -11.927633 5.917763 6.706434 -24.670280 -13.725516 -13.189672 -3.762996 -56.090050 -25.706020 3.292704 -51.228733 7.966780 8.642859 8.524705 12.647240 -38.919323 8.354301 9.292459 -1.514610 71.701157 19.840328 5.789387 53.289829 -8.389581 9.517264 -8.534408 -12.637552 15.326028 -5.619930 7.091308 8.216489 10.083005 -5.994554 -2.127802 -18.990248 2.200555 -2.072905 -14.637095 -11.014325 -5.332300 30.943937 5.272902 4.962322 -27.081614 -6.191720 -0.826413 
-42.501671 53.333000 -8.519997 -1.169396 -8.247339 86.589256 16.568213 -2.415687 4.293584 -18.396086 -1.150191 1.297250 -3.559758 -8.953294 -11.879089 5.364815 6.885431 -24.620888 -13.725516 -13.189672 -3.762996 -55.986794 -26.286598 3.978858 -51.208199 7.965346 8.641727 8.524705 12.647240 -38.948620 8.354301 9.292459 -1.514610 71.400490 19.952105 5.347581 53.216545 -8.377550 9.485832 -8.534408 -12.637552 15.472514 -6.246714 7.270339 8.290895 10.453970 -5.977079 -2.179590 -18.859457 1.874396 -2.186283 -15.523520 -10.836740 -5.172923 31.942823 5.204879 5.081712 -27.231092 -6.499176 -1.000871 
-42.560078 53.320873 -8.545213 -1.227788 -8.090366 86.820786 16.927279 -2.166292 4.085302 -18.435070 -1.156217 1.219604 -3.655714 -8.925920 -11.886603 5.074401 7.102553 -24.662226 -13.725516 -13.189672 -3.762996 -55.737953 -26.784842 4.634933 -51.145721 7.954264 8.621074 8.524705 12.647240 -39.163464 8.354301 9.292459 -1.514610 71.354317 19.994444 4.643073 53.110844 -8.355234 9.434364 -8.534408 -12.637552 14.925640 -6.208508 7.300908 8.516921 10.544214 -5.995560 -2.208337 -18.762964 1.536432 -2.294499 -15.868785 -10.751768 -4.955729 32.750221 5.155795 5.169503 -27.244862 -6.536082 -1.003608 
-42.617538 53.319592 -8.557979 -1.483307 -7.947936 87.052666 17.226288 -1.700177 4.001529 -18.337360 -1.155686 1.149322 -3.839050 -8.966093 -11.887297 4.937463 7.312453 -24.694103 -13.725516 -13.189672 -3.762996 -55.494305 -27.294456 5.484038 -51.208199 7.965346 8.641727 8.524705 12.647240 -39.143932 8.354301 9.292459 -1.514610 71.247459 20.106573 4.093914 52.962955 -8.325242 9.372427 -8.534408 -12.637552 14.320169 -6.247091 7.583044 8.559860 10.645099 -5.975335 -2.216632 -18.668114 1.388117 -2.369964 -16.188541 -10.417904 -4.816440 33.694027 5.106770 5.298025 -27.435247 -6.357725 -0.998432 
-42.650734 53.314163 -8.562767 -1.688448 -7.735363 87.256439 17.563955 -1.273541 3.909430 -18.581366 -1.207020 1.083923 -3.888309 -9.013169 -11.847922 5.050139 7.486352 -24.623705 -13.725516 -13.189672 -3.762996 -55.303299 -27.383123 6.379543 -51.354771 7.994772 8.693207 8.524705 12.647240 -38.929089 8.354301 9.292459 -1.514610 71.241470 19.808741 3.823865 52.920948 -8.317163 9.352103 -8.534408 -12.637552 13.880717 -6.109137 7.776093 8.523080 10.678572 -5.996799 -2.201360 -18.600672 1.338950 -2.365389 -16.323881 -10.153366 -4.697069 34.519665 5.054102 5.384790 -27.637426 -5.836217 -0.801920 
-42.681690 53.313530 -8.560853 -1.774073 -7.578176 87.450981 17.773371 -0.981998 3.791018 -18.600723 -1.292524 1.022812 -3.859019 -8.936987 -11.827774 4.729889 7.501899 -24.578243 -13.725516 -13.189672 -3.762996 -55.049942 -27.629192 7.254892 -51.522785 8.031788 8.763413 8.524705 12.647240 -38.616589 8.354301 9.292459 -1.514610 71.279495 19.646378 3.501207 52.953354 -8.327484 9.370692 -8.534408 -12.637552 13.431500 -6.002628 7.845882 8.436076 10.645102 -5.975333 -2.216632 -18.512575 1.336772 -2.389282 -16.449446 -9.986452 -4.492624 35.146282 4.999846 5.482345 -27.480202 -4.803677 -0.298881 
-42.724468 53.330444 -8.554468 -1.843854 -7.674191 87.649811 17.748919 -0.689559 3.683592 -18.776402 -1.346159 0.966413 -3.818860 -8.741898 -11.816755 4.487749 7.226285 -24.565830 -13.725516 -13.189672 -3.762996 -54.881149 -27.672583 8.315327 -51.826553 8.092888 8.888005 8.524705 12.647240 -38.147839 8.354301 9.292459 -1.514610 71.320366 19.355814 3.234756 53.004967 -8.333285 9.392770 -8.534408 -12.637552 13.255719 -6.236493 7.903819 8.279346 10.717487 -5.987055 -2.204169 -18.444345 1.333457 -2.380342 -16.853874 -9.803666 -4.188587 35.732044 4.960793 5.551456 -27.254118 -3.827185 0.185955 
-42.738510 53.321190 -8.537552 -1.867848 -7.515635 87.824066 17.908236 -0.449473 3.546924 -18.844500 -1.499471 0.904852 -3.980921 -8.490705 -11.773686 4.600805 7.054125 -24.458733 -13.725516 -13.189672 -3.762996 -54.625729 -27.697058 9.406536 -52.236004 8.176694 9.061112 8.524705 12.647240 -37.542370 8.354301 9.292459 -1.514610 71.426010 19.194027 3.142813 53.004967 -8.333285 9.392770 -8.534408 -12.637552 13.177593 -6.080826 7.914433 8.181776 10.645113 -5.975315 -2.216631 -18.385832 1.315472 -2.402066 -16.786543 -9.589538 -3.650806 36.039108 4.940993 5.601992 -27.223318 -3.332431 0.422252 
-42.759892 53.322784 -8.512336 -1.924825 -7.425899 88.000023 17.922743 -0.184245 3.428609 -18.658804 -1.549607 0.849595 -4.137092 -8.567116 -11.688924 4.615540 7.350887 -24.319719 -13.725516 -13.189672 -3.762996 -54.398155 -27.918888 10.411022 -52.645763 8.256383 9.227659 8.524705 12.647240 -36.907600 8.354301 9.292459 -1.514610 71.383224 19.217098 3.141567 53.015896 -8.336297 9.392478 -8.534408 -12.637552 13.050640 -6.022493 7.983180 8.192775 10.650207 -5.987326 -2.197992 -18.387022 1.205962 -2.431822 -16.677193 -9.305285 -3.020840 36.327255 4.921737 5.621139 -27.417044 -2.998559 0.553230 
-42.783512 53.330124 -8.476268 -1.953432 -7.471591 88.214363 17.734344 0.054179 3.312346 -18.336672 -1.415506 0.787549 -4.189878 -8.864261 -11.590949 4.376148 7.715237 -24.187592 -13.725516 -13.189672 -3.762996 -54.300274 -28.299934 11.169743 -52.971416 8.317121 9.365034 8.524705 12.647240 -36.624405 8.354301 9.292459 -1.514610 71.132156 19.267355 3.209318 53.090317 -8.354506 9.432902 -8.534408 -12.637552 13.148296 -6.149158 8.060901 8.271961 10.685302 -5.983140 -2.230467 -18.319038 1.030717 -2.499466 -16.761562 -9.127389 -2.623799 36.772434 4.901859 5.673855 -27.840790 -2.812756 0.554734 
-42.809689 53.332043 -8.433179 -1.925167 -7.565620 88.405434 17.579348 0.290822 3.226838 -18.531544 -1.674968 0.744136 -4.197955 -8.679052 -11.575145 4.517313 7.583735 -24.116522 -13.725516 -13.189672 -3.762996 -54.037567 -28.091702 12.224995 -53.487209 8.411585 9.576751 8.524705 12.647240 -35.794323 8.354301 9.292459 -1.514610 71.327705 18.921549 3.299658 53.247818 -8.381797 9.496799 -8.534408 -12.637552 13.558452 -6.327076 8.084159 8.360304 10.713315 -5.972825 -2.232357 -18.190134 0.815056 -2.589962 -16.897417 -9.009869 -2.251340 37.230114 4.853114 5.728010 -28.307234 -2.855053 0.466407 
-42.838730 53.337467 -8.382427 -1.898294 -7.689369 88.577263 17.355307 0.484247 3.175128 -18.658112 -1.896851 0.711231 -4.368517 -8.413218 -11.581389 4.922804 7.285987 -24.102713 -13.725516 -13.189672 -3.762996 -53.863178 -27.993425 12.953406 -53.867088 8.482364 9.743840 8.524705 12.647240 -35.491589 8.354301 9.292459 -1.514610 71.519302 18.654320 3.356803 53.405319 -8.408570 9.560943 -8.534408 -12.637552 14.017436 -6.512691 8.123374 8.458163 10.767917 -5.975568 -2.227175 -18.078516 0.602296 -2.667113 -16.955135 -8.892330 -1.870025 37.536587 4.833784 5.777609 -28.624861 -2.920272 0.365403 
